<svg xmlns="http://www.w3.org/2000/svg" viewBox="0 0 24 24">
  <defs>
    <linearGradient id="af" x1="12" y1="22" x2="12" y2="2" gradientUnits="userSpaceOnUse">
      <stop offset="0%" stop-color="#1F3A8A"/>
      <stop offset="100%" stop-color="#3B82F6"/>
    </linearGradient>
  </defs>
  <!-- Gear center dot -->
  <path fill="url(#af)" d="M13 8.57c-.79 0-1.43.64-1.43 1.43s.64 1.43 1.43 1.43 1.43-.64 1.43-1.43-.64-1.43-1.43-1.43z"/>
  <!-- Head silhouette with gear -->
  <path fill="url(#af)" d="M13.21 3c-3.84-.11-7 2.87-7.19 6.64L4.1 12.2c-.25.33-.01.8.4.8H6v3c0 1.1.9 2 2 2h1v2c0 .55.45 1 1 1h5c.55 0 1-.45 1-1v-3.68c2.44-1.16 4.1-3.68 4-6.58C19.86 6.12 16.82 3.11 13.21 3zM16 10c0 .13-.01.26-.02.39l.83.66c.08.06.1.16.05.25l-.8 1.39c-.05.09-.16.12-.24.09l-.99-.4c-.21.16-.43.29-.67.39L14 13.83c-.01.1-.1.17-.2.17h-1.6c-.1 0-.18-.07-.2-.17l-.15-1.06c-.25-.1-.47-.23-.68-.39l-.99.4c-.09.03-.2 0-.25-.09l-.8-1.39c-.05-.08-.03-.19.05-.25l.84-.66C10.01 10.26 10 10.13 10 10c0-.13.02-.27.04-.39l-.85-.66c-.08-.06-.1-.16-.05-.26l.8-1.38c.05-.09.15-.12.24-.09l1 .4c.2-.15.43-.29.67-.39l.15-1.06C12.02 6.07 12.1 6 12.2 6h1.6c.1 0 .18.07.2.17l.15 1.06c.24.1.46.23.67.39l1-.4c.09-.03.2 0 .24.09l.8 1.38c.05.09.03.2-.05.26l-.85.66c.03.13.04.27.04.39z"/>
</svg>
